{
  "accessors": [
    {
      "bufferView": 2,
      "componentType": 5126,
      "count": 912,
      "max": [
        1.0777409076690674,
        1.311574101448059,
        1.0777411460876465
      ],
      "min": [
        -1.0777405500411987,
        -1.3460880517959595,
        -1.077741026878357
      ],
      "type": "VEC3"
    },
    {
      "bufferView": 2,
      "byteOffset": 10944,
      "componentType": 5126,
      "count": 912,
      "max": [
        1.0,
        1.0,
        1.0
      ],
      "min": [
        -1.0,
        -1.0,
        -1.0
      ],
      "type": "VEC3"
    },
    {
      "bufferView": 3,
      "componentType": 5126,
      "count": 912,
      "max": [
        1.0,
        0.047147564589977264,
        1.0,
        1.0
      ],
      "min": [
        -1.0,
        -0.04714639484882355,
        -1.0,
        -1.0
      ],
      "type": "VEC4"
    },
    {
      "bufferView": 1,
      "componentType": 5126,
      "count": 912,
      "max": [
        0.8934312462806702,
        0.888780415058136
      ],
      "min": [
        0.010456811636686325,
        0.009241740219295025
      ],
      "type": "VEC2"
    },
    {
      "bufferView": 1,
      "byteOffset": 7296,
      "componentType": 5126,
      "count": 912,
      "max": [
        0.8934312462806702,
        0.888780415058136
      ],
      "min": [
        0.010456811636686325,
        0.009241740219295025
      ],
      "type": "VEC2"
    },
    {
      "bufferView": 1,
      "byteOffset": 14592,
      "componentType": 5126,
      "count": 912,
      "max": [
        0.8934312462806702,
        0.888780415058136
      ],
      "min": [
        0.010456811636686325,
        0.009241740219295025
      ],
      "type": "VEC2"
    },
    {
      "bufferView": 1,
      "byteOffset": 21888,
      "componentType": 5126,
      "count": 912,
      "max": [
        0.8934312462806702,
        0.888780415058136
      ],
      "min": [
        0.010456811636686325,
        0.009241740219295025
      ],
      "type": "VEC2"
    },
    {
      "bufferView": 0,
      "componentType": 5125,
      "count": 4224,
      "type": "SCALAR"
    },
    {
      "bufferView": 2,
      "byteOffset": 21888,
      "componentType": 5126,
      "count": 232,
      "max": [
        0.04268460348248482,
        1.5172979831695557,
        0.034743327647447586
      ],
      "min": [
        -0.03474295511841774,
        1.3088297843933105,
        -0.03474278002977371
      ],
      "type": "VEC3"
    },
    {
      "bufferView": 2,
      "byteOffset": 24672,
      "componentType": 5126,
      "count": 232,
      "max": [
        0.9981577396392822,
        0.9983508586883545,
        0.9958279728889465
      ],
      "min": [
        -0.993506669998169,
        -0.19550570845603943,
        -0.9958279728889465
      ],
      "type": "VEC3"
    },
    {
      "bufferView": 3,
      "byteOffset": 14592,
      "componentType": 5126,
      "count": 232,
      "max": [
        0.9713847041130066,
        0.6914656758308411,
        0.9989517331123352,
        1.0
      ],
      "min": [
        -0.9992190599441528,
        -0.5378459095954895,
        -0.9921162128448486,
        1.0
      ],
      "type": "VEC4"
    },
    {
      "bufferView": 1,
      "byteOffset": 29184,
      "componentType": 5126,
      "count": 232,
      "max": [
        0.9941136837005615,
        0.9890769124031067
      ],
      "min": [
        0.8499489426612854,
        0.8451667428016663
      ],
      "type": "VEC2"
    },
    {
      "bufferView": 1,
      "byteOffset": 31040,
      "componentType": 5126,
      "count": 232,
      "max": [
        0.9941136837005615,
        0.9890769124031067
      ],
      "min": [
        0.8499489426612854,
        0.8451667428016663
      ],
      "type": "VEC2"
    },
    {
      "bufferView": 1,
      "byteOffset": 32896,
      "componentType": 5126,
      "count": 232,
      "max": [
        0.9941136837005615,
        0.9890769124031067
      ],
      "min": [
        0.8499489426612854,
        0.8451667428016663
      ],
      "type": "VEC2"
    },
    {
      "bufferView": 1,
      "byteOffset": 34752,
      "componentType": 5126,
      "count": 232,
      "max": [
        0.9941136837005615,
        0.9890769124031067
      ],
      "min": [
        0.8499489426612854,
        0.8451667428016663
      ],
      "type": "VEC2"
    },
    {
      "bufferView": 0,
      "byteOffset": 16896,
      "componentType": 5125,
      "count": 1248,
      "type": "SCALAR"
    }
  ],
  "asset": {
    "extras": {
      "author": "VampirkoO (https://sketchfab.com/VampirkoO)",
      "license": "CC-BY-4.0 (http://creativecommons.org/licenses/by/4.0/)",
      "source": "https://sketchfab.com/3d-models/watermelon-a422d22e0ff64b3f87bd8c6fea8cd3fe",
      "title": "Watermelon"
    },
    "generator": "Sketchfab-12.68.0",
    "version": "2.0"
  },
  "bufferViews": [
    {
      "buffer": 0,
      "byteLength": 21888,
      "name": "floatBufferViews",
      "target": 34963
    },
    {
      "buffer": 0,
      "byteLength": 36608,
      "byteOffset": 21888,
      "byteStride": 8,
      "name": "floatBufferViews",
      "target": 34962
    },
    {
      "buffer": 0,
      "byteLength": 27456,
      "byteOffset": 58496,
      "byteStride": 12,
      "name": "floatBufferViews",
      "target": 34962
    },
    {
      "buffer": 0,
      "byteLength": 18304,
      "byteOffset": 85952,
      "byteStride": 16,
      "name": "floatBufferViews",
      "target": 34962
    }
  ],
  "buffers": [
    {
      "byteLength": 104256,
      "uri": "scene.bin"
    }
  ],
  "images": [
    {
      "uri": "textures/Material.001_baseColor.png"
    },
    {
      "uri": "textures/Material.001_metallicRoughness.png"
    },
    {
      "uri": "textures/Material.001_normal.png"
    }
  ],
  "materials": [
    {
      "name": "Material.001",
      "normalTexture": {
        "index": 2
      },
      "pbrMetallicRoughness": {
        "baseColorTexture": {
          "index": 0
        },
        "metallicFactor": 0.0,
        "metallicRoughnessTexture": {
          "index": 1
        }
      }
    }
  ],
  "meshes": [
    {
      "name": "Object_0",
      "primitives": [
        {
          "attributes": {
            "NORMAL": 1,
            "POSITION": 0,
            "TANGENT": 2,
            "TEXCOORD_0": 3,
            "TEXCOORD_1": 4,
            "TEXCOORD_2": 5,
            "TEXCOORD_3": 6
          },
          "indices": 7,
          "material": 0,
          "mode": 4
        }
      ]
    },
    {
      "name": "Object_1",
      "primitives": [
        {
          "attributes": {
            "NORMAL": 9,
            "POSITION": 8,
            "TANGENT": 10,
            "TEXCOORD_0": 11,
            "TEXCOORD_1": 12,
            "TEXCOORD_2": 13,
            "TEXCOORD_3": 14
          },
          "indices": 15,
          "material": 0,
          "mode": 4
        }
      ]
    }
  ],
  "nodes": [
    {
      "children": [
        1
      ],
      "matrix": [
        1.0,
        0.0,
        0.0,
        0.0,
        0.0,
        0.0006731553003194168,
        -0.9999997615814209,
        0.0,
        0.0,
        0.9999997615814209,
        0.0006731553003194168,
        0.0,
        0.0,
        1.8835219606226887e-08,
        -4.4874523155158386e-05,
        1.0
      ],
      "name": "Sketchfab_model"
    },
    {
      "children": [
        2
      ],
      "name": "root"
    },
    {
      "children": [
        3,
        5
      ],
      "matrix": [
        1.0,
        0.0,
        0.0,
        0.0,
        0.0,
        2.220446049250313e-16,
        1.0,
        0.0,
        0.0,
        -1.0,
        2.220446049250313e-16,
        0.0,
        0.0,
        0.0,
        0.0,
        1.0
      ],
      "name": "GLTF_SceneRootNode"
    },
    {
      "children": [
        4
      ],
      "name": "Sphere_1"
    },
    {
      "mesh": 0,
      "name": "Object_4"
    },
    {
      "children": [
        6
      ],
      "matrix": [
        1.0,
        0.0,
        0.0,
        0.0,
        0.0,
        1.0,
        0.0,
        0.0,
        0.0,
        0.0,
        1.0,
        0.0,
        0.0,
        -0.0378827303647995,
        0.0,
        1.0
      ],
      "name": "Sphere.001_2"
    },
    {
      "mesh": 1,
      "name": "Object_6"
    }
  ],
  "samplers": [
    {
      "magFilter": 9729,
      "minFilter": 9987,
      "wrapS": 10497,
      "wrapT": 10497
    }
  ],
  "scene": 0,
  "scenes": [
    {
      "name": "Sketchfab_Scene",
      "nodes": [
        0
      ]
    }
  ],
  "textures": [
    {
      "sampler": 0,
      "source": 0
    },
    {
      "sampler": 0,
      "source": 1
    },
    {
      "sampler": 0,
      "source": 2
    }
  ]
}
